xxxxxxxxxxxxxxxxxxxxxxxxxxxxxxxxxxxxxxxxxxxxxxxxxxxxxxxxxxxxxxxxxxxxxxxxxxxxxxxx

Total Recall
1990

xxxxxxxxxxxxxxxxxxxxxxxxxxxxxxxxxxxxxxxxxxxxxxxxxxxxxxxxxxxxxxxxxxxxxxxxxxxxxxxx
 
http://www.imdb.com/title/tt0100802/ 
http://en.wikipedia.org/wiki/Total_Recall

xxxxxxxxxxxxxxxxxxxxxxxxxxxxxxxxxxxxxxxxxxxxxxxxxxxxxxxxxxxxxxxxxxxxxxxxxxxxxxxx

When a man goes for virtual vacation memories of the planet Mars, an unexpected
and harrowing series of events forces him to go to the planet for real, or does
he?

xxxxxxxxxxxxxxxxxxxxxxxxxxxxxxxxxxxxxxxxxxxxxxxxxxxxxxxxxxxxxxxxxxxxxxxxxxxxxxxx

Arnold Schwarzenegger	 ...	Douglas Quaid / Hauser
Rachel Ticotin	         ...	Melina
Sharon Stone	         ...	Lori
Ronny Cox	         ...	Vilos Cohaagen
Michael Ironside	 ...	Richter

xxxxxxxxxxxxxxxxxxxxxxxxxxxxxxxxxxxxxxxxxxxxxxxxxxxxxxxxxxxxxxxxxxxxxxxxxxxxxxxx

General
Format                           : MPEG-4
Format profile                   : Base Media / Version 2
Codec ID                         : mp42
File size                        : 269 MiB
Duration                         : 1h 53mn
Overall bit rate                 : 332 Kbps

Video
ID                               : 1
Format                           : AVC
Format/Info                      : Advanced Video Codec
Format profile                   : Baseline@L2.1
Format settings, CABAC           : No
Format settings, ReFrames        : 2 frames
Format settings, GOP             : M=1, N=9
Codec ID                         : avc1
Codec ID/Info                    : Advanced Video Coding
Duration                         : 1h 53mn
Bit rate mode                    : Variable
Bit rate                         : 280 Kbps
Width                            : 480 pixels
Height                           : 256 pixels
Display aspect ratio             : 1.875
Frame rate mode                  : Variable
Frame rate                       : 23.976 fps
Minimum frame rate               : 7.992 fps
Maximum frame rate               : 23.981 fps
Color space                      : YUV
Chroma subsampling               : 4:2:0
Bit depth                        : 8 bits
Scan type                        : Progressive
Bits/(Pixel*Frame)               : 0.095
Stream size                      : 228 MiB (85%)
Writing library                  : x264 core 79

Audio
ID                               : 2
Format                           : AAC
Format/Info                      : Advanced Audio Codec
Format profile                   : LC
Codec ID                         : 40
Duration                         : 1h 53mn
Bit rate mode                    : Variable
Bit rate                         : 48.0 Kbps
Maximum bit rate                 : 79.7 Kbps
Channel(s)                       : 2 channels
Channel positions                : Front: L R
Sampling rate                    : 24.0 KHz
Compression mode                 : Lossy
Stream size                      : 39.0 MiB (14%)

xxxxxxxxxxxxxxxxxxxxxxxxxxxxxxxxxxxxxxxxxxxxxxxxxxxxxxxxxxxxxxxxxxxxxxxxxxxxxxxx

FaCTFiCTioN ... 1. A work of fiction based in fact.
                2. A work of fiction which later becomes fact.

xxxxxxxxxxxxxxxxxxxxxxxxxxxxxxxxxxxxxxxxxxxxxxxxxxxxxxxxxxxxxxxxxxxxxxxxxxxxxxxx

272p = 272 lines of pixels in a 16:9 aspect ratio video with a 480 pixel width.

A 480x208 pixel video with an aspect ratio of 2.35:1 or a 480x352 pixel video
with an aspect ratio of 4:3 are also considered 272p.

272p m4v/mp4 format videos are easily played on PCs, Macs, smartphones, tablets,
game consoles, and portable multimedia players such as iPods, Zunes, PSPs, etc.
